<svg id="bugaboo" width="100%" height="100%" viewBox="0 0 376 275" version="1.1" xmlns="http://www.w3.org/2000/svg" xmlns:xlink="http://www.w3.org/1999/xlink">
    <g id="mountain" stroke="none" stroke-width="1" fill="none" fill-rule="evenodd">
        <polygon id="shard-30" fill="#E5DED9" points="163.355469 16.9257812 174.003906 25.8339844 169.189453 55.0039062"></polygon>
        <polygon id="shard-29" fill="#C1B8AE" points="184.516602 28.7265625 205.601562 44.6699219 191.988281 68.6191406"></polygon>
        <polygon id="shard-28" fill="#C1B8AE" points="174.074219 26.3710938 169.25 56.0703125 192.47168 69.0576172"></polygon>
        <polygon id="shard-27" fill="#7D7771" points="164.348633 23.6757812 159.217773 51.1621094 169.375977 57.4443359"></polygon>
        <polygon id="shard-26" fill="#7D7771" points="159.727539 51.2910156 161.03125 135.453125 134.839844 110.918945"></polygon>
        <polygon id="shard-25" fill="#3E3D3D" points="159.569336 50.8740234 192.111328 68.5996094 160.310547 134.850586"></polygon>
        <polygon id="shard-24" fill="#7D7771" points="174.172852 26.6708984 185 29 192.351562 68.7890625"></polygon>
        <polygon id="shard-23" fill="#7D7771" points="192.247559 67.9799805 215.570312 149.859375 128.525391 201.425781"></polygon>
        <polygon id="shard-22" fill="#3E3D3D" points="206 48 214.59375 48.5654297 215.762695 151.053711"></polygon>
        <polygon id="shard-21" fill="#E5DED9" points="215.149414 54.1757812 287.6875 137.693359 242.014648 161.359375"></polygon>
        <polygon id="shard-20" fill="#C3BAB0" points="214.692383 51.2348633 215.754883 150.134277 242.120117 162.006836"></polygon>
        <polygon id="shard-19" fill="#C3BAB0" points="286.938477 137.374023 304.348633 188.4375 241.551758 161.62793"></polygon>
        <polygon id="shard-18" fill="#7D7771" points="216.197266 149.578125 242.265625 161.681641 138.230469 249.066406"></polygon>
        <polygon id="shard-17" fill="#C3BAB0" points="216.464844 149.318359 51.1347656 247.432617 139.268555 248.608398"></polygon>
        <polygon id="shard-16" fill="#3E3D3D" points="242.325195 161.431641 138.974609 248.612305 244.625 232.123047"></polygon>
        <polygon id="shard-15" fill="#7D7771" points="242.381836 161.864258 244.605469 232.345703 375.296875 274.274414"></polygon>
        <polygon id="shard-14" fill="#E5DED9" points="242.22168 161.652344 328.919922 199.019531 303.277344 213.048828"></polygon>
        <polygon id="shard-13" fill="#C3BAB0" points="302.907227 213.354492 374.789062 274.123047 328.475586 198.916992"></polygon>
        <polygon id="shard-12" fill="#3E3D3D" points="160.847656 134.807617 128.870117 201.605469 135.000977 110.211914"></polygon>
        <polygon id="shard-11" fill="#7D7771" points="134.074219 127.891602 107.791992 164.267578 129.18457 201.041992"></polygon>
        <polygon id="shard-10" fill="#C3BAB0" points="108.208008 164.166016 6.38671875 253.28125 129.073242 200.449219"></polygon>
        <polygon id="shard-9" fill="#7D7771" points="129.758789 200.439453 7.21191406 252.661133 52.5986328 247.354492"></polygon>
        <polygon id="shard-8" fill="#E5DED9" points="135.515625 11.9882812 120.828125 5.19140625 122.810547 11.5996094"></polygon>
        <polygon id="shard-7" fill="#E5DED9" points="147.675781 7.61523437 155.232422 4.65234375 152.251953 8.85742188"></polygon>
        <polygon id="shard-6" fill="#C3BAB0" points="53.3652344 0.94921875 45.3261719 4.04101562 60.7734375 5.41210937"></polygon>
        <polygon id="shard-5" fill="#2DA655" points="26 242 30.5742188 263.873047 32.6855469 244.445312"></polygon>
        <polygon id="shard-4" fill="#D03C24" points="0 226 4.57421875 247.873047 6.68554688 228.445312"></polygon>
        <polygon id="shard-3" fill="#DEE61A" points="8 242 12.5742188 263.873047 14.6855469 244.445312"></polygon>
        <polygon id="shard-2" fill="#E5DED9" points="83 8 83 13.625 88 17"></polygon>
        <polygon id="shard-1" fill="#E5DED9" points="192 68 216 151 206 44"></polygon>
    </g>
</svg>